solid OpenSCAD_Model
  facet normal -0.589898 -0.807478 0
    outer loop
      vertex 8.5 14.8035 47.9995
      vertex 11.3752 12.7031 56.9995
      vertex 8.5 14.8035 56.9995
    endloop
  endfacet
  facet normal -0.589898 -0.807478 -0
    outer loop
      vertex 11.3752 12.7031 56.9995
      vertex 8.5 14.8035 47.9995
      vertex 11.3752 12.7031 47.9995
    endloop
  endfacet
  facet normal 0.951553 -0.307485 0
    outer loop
      vertex -16.6285 3.55397 56.9995
      vertex -15.5303 6.95261 47.9995
      vertex -15.5303 6.95261 56.9995
    endloop
  endfacet
  facet normal 0.951553 -0.307485 0
    outer loop
      vertex -15.5303 6.95261 47.9995
      vertex -16.6285 3.55397 56.9995
      vertex -16.6285 3.55397 47.9995
    endloop
  endfacet
  facet normal -0.994581 0.103962 0
    outer loop
      vertex 16.6285 -3.55397 47.9995
      vertex 17 0 56.9995
      vertex 17 0 47.9995
    endloop
  endfacet
  facet normal -0.994581 0.103962 0
    outer loop
      vertex 17 0 56.9995
      vertex 16.6285 -3.55397 47.9995
      vertex 16.6285 -3.55397 56.9995
    endloop
  endfacet
  facet normal 0.209007 0.977914 -0
    outer loop
      vertex -1.77698 -17 47.9995
      vertex -5.25329 -16.257 56.9995
      vertex -1.77698 -17 56.9995
    endloop
  endfacet
  facet normal 0.209007 0.977914 0
    outer loop
      vertex -5.25329 -16.257 56.9995
      vertex -1.77698 -17 47.9995
      vertex -5.25329 -16.257 47.9995
    endloop
  endfacet
  facet normal -0.951553 -0.307485 0
    outer loop
      vertex 16.6285 3.55397 47.9995
      vertex 15.5303 6.95261 56.9995
      vertex 15.5303 6.95261 47.9995
    endloop
  endfacet
  facet normal -0.951553 -0.307485 0
    outer loop
      vertex 15.5303 6.95261 56.9995
      vertex 16.6285 3.55397 47.9995
      vertex 16.6285 3.55397 56.9995
    endloop
  endfacet
  facet normal 0.209007 -0.977914 0
    outer loop
      vertex -5.25329 16.257 47.9995
      vertex -1.77698 17 56.9995
      vertex -5.25329 16.257 56.9995
    endloop
  endfacet
  facet normal 0.209007 -0.977914 0
    outer loop
      vertex -1.77698 17 56.9995
      vertex -5.25329 16.257 47.9995
      vertex -1.77698 17 47.9995
    endloop
  endfacet
  facet normal 0.867211 -0.497942 0
    outer loop
      vertex -15.5303 6.95261 56.9995
      vertex -13.7533 10.0474 47.9995
      vertex -13.7533 10.0474 56.9995
    endloop
  endfacet
  facet normal 0.867211 -0.497942 0
    outer loop
      vertex -13.7533 10.0474 47.9995
      vertex -15.5303 6.95261 56.9995
      vertex -15.5303 6.95261 47.9995
    endloop
  endfacet
  facet normal -0.744969 0.667099 0
    outer loop
      vertex 11.3752 -12.7031 47.9995
      vertex 13.7533 -10.0474 56.9995
      vertex 13.7533 -10.0474 47.9995
    endloop
  endfacet
  facet normal -0.744969 0.667099 0
    outer loop
      vertex 13.7533 -10.0474 56.9995
      vertex 11.3752 -12.7031 47.9995
      vertex 11.3752 -12.7031 56.9995
    endloop
  endfacet
  facet normal -0.867211 -0.497942 0
    outer loop
      vertex 15.5303 6.95261 47.9995
      vertex 13.7533 10.0474 56.9995
      vertex 13.7533 10.0474 47.9995
    endloop
  endfacet
  facet normal -0.867211 -0.497942 0
    outer loop
      vertex 13.7533 10.0474 56.9995
      vertex 15.5303 6.95261 47.9995
      vertex 15.5303 6.95261 56.9995
    endloop
  endfacet
  facet normal -0.744969 -0.667099 0
    outer loop
      vertex 13.7533 10.0474 47.9995
      vertex 11.3752 12.7031 56.9995
      vertex 11.3752 12.7031 47.9995
    endloop
  endfacet
  facet normal -0.744969 -0.667099 0
    outer loop
      vertex 11.3752 12.7031 56.9995
      vertex 13.7533 10.0474 47.9995
      vertex 13.7533 10.0474 56.9995
    endloop
  endfacet
  facet normal -0.408604 -0.912712 0
    outer loop
      vertex 5.25329 16.257 47.9995
      vertex 8.5 14.8035 56.9995
      vertex 5.25329 16.257 56.9995
    endloop
  endfacet
  facet normal -0.408604 -0.912712 -0
    outer loop
      vertex 8.5 14.8035 56.9995
      vertex 5.25329 16.257 47.9995
      vertex 8.5 14.8035 47.9995
    endloop
  endfacet
  facet normal 0 -1 0
    outer loop
      vertex -1.77698 17 47.9995
      vertex 1.77698 17 56.9995
      vertex -1.77698 17 56.9995
    endloop
  endfacet
  facet normal 0 -1 -0
    outer loop
      vertex 1.77698 17 56.9995
      vertex -1.77698 17 47.9995
      vertex 1.77698 17 47.9995
    endloop
  endfacet
  facet normal -0.209007 -0.977914 0
    outer loop
      vertex 1.77698 17 47.9995
      vertex 5.25329 16.257 56.9995
      vertex 1.77698 17 56.9995
    endloop
  endfacet
  facet normal -0.209007 -0.977914 -0
    outer loop
      vertex 5.25329 16.257 56.9995
      vertex 1.77698 17 47.9995
      vertex 5.25329 16.257 47.9995
    endloop
  endfacet
  facet normal 0.994581 -0.103962 0
    outer loop
      vertex -17 0 56.9995
      vertex -16.6285 3.55397 47.9995
      vertex -16.6285 3.55397 56.9995
    endloop
  endfacet
  facet normal 0.994581 -0.103962 0
    outer loop
      vertex -16.6285 3.55397 47.9995
      vertex -17 0 56.9995
      vertex -17 0 47.9995
    endloop
  endfacet
  facet normal 0.744969 -0.667099 0
    outer loop
      vertex -13.7533 10.0474 56.9995
      vertex -11.3752 12.7031 47.9995
      vertex -11.3752 12.7031 56.9995
    endloop
  endfacet
  facet normal 0.744969 -0.667099 0
    outer loop
      vertex -11.3752 12.7031 47.9995
      vertex -13.7533 10.0474 56.9995
      vertex -13.7533 10.0474 47.9995
    endloop
  endfacet
  facet normal 0.408604 -0.912712 0
    outer loop
      vertex -8.5 14.8035 47.9995
      vertex -5.25329 16.257 56.9995
      vertex -8.5 14.8035 56.9995
    endloop
  endfacet
  facet normal 0.408604 -0.912712 0
    outer loop
      vertex -5.25329 16.257 56.9995
      vertex -8.5 14.8035 47.9995
      vertex -5.25329 16.257 47.9995
    endloop
  endfacet
  facet normal 0.589898 -0.807478 0
    outer loop
      vertex -11.3752 12.7031 47.9995
      vertex -8.5 14.8035 56.9995
      vertex -11.3752 12.7031 56.9995
    endloop
  endfacet
  facet normal 0.589898 -0.807478 0
    outer loop
      vertex -8.5 14.8035 56.9995
      vertex -11.3752 12.7031 47.9995
      vertex -8.5 14.8035 47.9995
    endloop
  endfacet
  facet normal -0.994581 -0.103962 0
    outer loop
      vertex 17 0 47.9995
      vertex 16.6285 3.55397 56.9995
      vertex 16.6285 3.55397 47.9995
    endloop
  endfacet
  facet normal -0.994581 -0.103962 0
    outer loop
      vertex 16.6285 3.55397 56.9995
      vertex 17 0 47.9995
      vertex 17 0 56.9995
    endloop
  endfacet
  facet normal -0.209007 0.977914 0
    outer loop
      vertex 5.25329 -16.257 47.9995
      vertex 1.77698 -17 56.9995
      vertex 5.25329 -16.257 56.9995
    endloop
  endfacet
  facet normal -0.209007 0.977914 0
    outer loop
      vertex 1.77698 -17 56.9995
      vertex 5.25329 -16.257 47.9995
      vertex 1.77698 -17 47.9995
    endloop
  endfacet
  facet normal -0.867211 0.497942 0
    outer loop
      vertex 13.7533 -10.0474 47.9995
      vertex 15.5303 -6.95261 56.9995
      vertex 15.5303 -6.95261 47.9995
    endloop
  endfacet
  facet normal -0.867211 0.497942 0
    outer loop
      vertex 15.5303 -6.95261 56.9995
      vertex 13.7533 -10.0474 47.9995
      vertex 13.7533 -10.0474 56.9995
    endloop
  endfacet
  facet normal -0.951553 0.307485 0
    outer loop
      vertex 15.5303 -6.95261 47.9995
      vertex 16.6285 -3.55397 56.9995
      vertex 16.6285 -3.55397 47.9995
    endloop
  endfacet
  facet normal -0.951553 0.307485 0
    outer loop
      vertex 16.6285 -3.55397 56.9995
      vertex 15.5303 -6.95261 47.9995
      vertex 15.5303 -6.95261 56.9995
    endloop
  endfacet
  facet normal -0.408604 0.912712 0
    outer loop
      vertex 8.5 -14.8035 47.9995
      vertex 5.25329 -16.257 56.9995
      vertex 8.5 -14.8035 56.9995
    endloop
  endfacet
  facet normal -0.408604 0.912712 0
    outer loop
      vertex 5.25329 -16.257 56.9995
      vertex 8.5 -14.8035 47.9995
      vertex 5.25329 -16.257 47.9995
    endloop
  endfacet
  facet normal -0.589898 0.807478 0
    outer loop
      vertex 11.3752 -12.7031 47.9995
      vertex 8.5 -14.8035 56.9995
      vertex 11.3752 -12.7031 56.9995
    endloop
  endfacet
  facet normal -0.589898 0.807478 0
    outer loop
      vertex 8.5 -14.8035 56.9995
      vertex 11.3752 -12.7031 47.9995
      vertex 8.5 -14.8035 47.9995
    endloop
  endfacet
  facet normal 0 1 -0
    outer loop
      vertex 1.77698 -17 47.9995
      vertex -1.77698 -17 56.9995
      vertex 1.77698 -17 56.9995
    endloop
  endfacet
  facet normal 0 1 0
    outer loop
      vertex -1.77698 -17 56.9995
      vertex 1.77698 -17 47.9995
      vertex -1.77698 -17 47.9995
    endloop
  endfacet
  facet normal 0.589898 0.807478 -0
    outer loop
      vertex -8.5 -14.8035 47.9995
      vertex -11.3752 -12.7031 56.9995
      vertex -8.5 -14.8035 56.9995
    endloop
  endfacet
  facet normal 0.589898 0.807478 0
    outer loop
      vertex -11.3752 -12.7031 56.9995
      vertex -8.5 -14.8035 47.9995
      vertex -11.3752 -12.7031 47.9995
    endloop
  endfacet
  facet normal 0.867211 0.497942 0
    outer loop
      vertex -13.7533 -10.0474 56.9995
      vertex -15.5303 -6.95261 47.9995
      vertex -15.5303 -6.95261 56.9995
    endloop
  endfacet
  facet normal 0.867211 0.497942 0
    outer loop
      vertex -15.5303 -6.95261 47.9995
      vertex -13.7533 -10.0474 56.9995
      vertex -13.7533 -10.0474 47.9995
    endloop
  endfacet
  facet normal 0.994581 0.103962 0
    outer loop
      vertex -16.6285 -3.55397 56.9995
      vertex -17 0 47.9995
      vertex -17 0 56.9995
    endloop
  endfacet
  facet normal 0.994581 0.103962 0
    outer loop
      vertex -17 0 47.9995
      vertex -16.6285 -3.55397 56.9995
      vertex -16.6285 -3.55397 47.9995
    endloop
  endfacet
  facet normal 0 0 1
    outer loop
      vertex 16 0 47.9995
      vertex 17 0 47.9995
      vertex 16.6285 3.55397 47.9995
    endloop
  endfacet
  facet normal 0 0 1
    outer loop
      vertex 17 0 47.9995
      vertex 16 0 47.9995
      vertex 16.6285 -3.55397 47.9995
    endloop
  endfacet
  facet normal 0 0 1
    outer loop
      vertex 16.6285 3.55397 47.9995
      vertex 15.6504 3.34491 47.9995
      vertex 16 0 47.9995
    endloop
  endfacet
  facet normal 0 0 1
    outer loop
      vertex 15.5303 6.95261 47.9995
      vertex 15.6504 3.34491 47.9995
      vertex 16.6285 3.55397 47.9995
    endloop
  endfacet
  facet normal 0 0 1
    outer loop
      vertex 15.5303 6.95261 47.9995
      vertex 14.6167 6.54363 47.9995
      vertex 15.6504 3.34491 47.9995
    endloop
  endfacet
  facet normal 0 0 1
    outer loop
      vertex 13.7533 10.0474 47.9995
      vertex 14.6167 6.54363 47.9995
      vertex 15.5303 6.95261 47.9995
    endloop
  endfacet
  facet normal 0 0 1
    outer loop
      vertex 13.7533 10.0474 47.9995
      vertex 12.9443 9.45637 47.9995
      vertex 14.6167 6.54363 47.9995
    endloop
  endfacet
  facet normal -0 0 1
    outer loop
      vertex 10.7061 11.9558 47.9995
      vertex 13.7533 10.0474 47.9995
      vertex 11.3752 12.7031 47.9995
    endloop
  endfacet
  facet normal 0 0 1
    outer loop
      vertex 13.7533 10.0474 47.9995
      vertex 10.7061 11.9558 47.9995
      vertex 12.9443 9.45637 47.9995
    endloop
  endfacet
  facet normal -0 0 1
    outer loop
      vertex 8 13.9327 47.9995
      vertex 11.3752 12.7031 47.9995
      vertex 8.5 14.8035 47.9995
    endloop
  endfacet
  facet normal 0 0 1
    outer loop
      vertex 11.3752 12.7031 47.9995
      vertex 8 13.9327 47.9995
      vertex 10.7061 11.9558 47.9995
    endloop
  endfacet
  facet normal 0 0 1
    outer loop
      vertex 5.25329 16.257 47.9995
      vertex 8 13.9327 47.9995
      vertex 8.5 14.8035 47.9995
    endloop
  endfacet
  facet normal 0 0 1
    outer loop
      vertex 5.25329 16.257 47.9995
      vertex 4.94427 15.3007 47.9995
      vertex 8 13.9327 47.9995
    endloop
  endfacet
  facet normal 0 0 1
    outer loop
      vertex 1.77698 17 47.9995
      vertex 4.94427 15.3007 47.9995
      vertex 5.25329 16.257 47.9995
    endloop
  endfacet
  facet normal 0 0 1
    outer loop
      vertex 1.77698 17 47.9995
      vertex 1.67245 16 47.9995
      vertex 4.94427 15.3007 47.9995
    endloop
  endfacet
  facet normal 0 0 1
    outer loop
      vertex 1.77698 17 47.9995
      vertex -1.67245 16 47.9995
      vertex 1.67245 16 47.9995
    endloop
  endfacet
  facet normal -0 0 1
    outer loop
      vertex -1.77698 17 47.9995
      vertex -1.67245 16 47.9995
      vertex 1.77698 17 47.9995
    endloop
  endfacet
  facet normal 0 0 1
    outer loop
      vertex -1.77698 17 47.9995
      vertex -4.94427 15.3007 47.9995
      vertex -1.67245 16 47.9995
    endloop
  endfacet
  facet normal -0 0 1
    outer loop
      vertex -5.25329 16.257 47.9995
      vertex -4.94427 15.3007 47.9995
      vertex -1.77698 17 47.9995
    endloop
  endfacet
  facet normal 0 0 1
    outer loop
      vertex -5.25329 16.257 47.9995
      vertex -8 13.9327 47.9995
      vertex -4.94427 15.3007 47.9995
    endloop
  endfacet
  facet normal -0 0 1
    outer loop
      vertex -8.5 14.8035 47.9995
      vertex -8 13.9327 47.9995
      vertex -5.25329 16.257 47.9995
    endloop
  endfacet
  facet normal 0 0 1
    outer loop
      vertex -11.3752 12.7031 47.9995
      vertex -8 13.9327 47.9995
      vertex -8.5 14.8035 47.9995
    endloop
  endfacet
  facet normal 0 0 1
    outer loop
      vertex -8 13.9327 47.9995
      vertex -11.3752 12.7031 47.9995
      vertex -10.7061 11.9558 47.9995
    endloop
  endfacet
  facet normal 0 0 1
    outer loop
      vertex -13.7533 10.0474 47.9995
      vertex -10.7061 11.9558 47.9995
      vertex -11.3752 12.7031 47.9995
    endloop
  endfacet
  facet normal 0 0 1
    outer loop
      vertex -10.7061 11.9558 47.9995
      vertex -13.7533 10.0474 47.9995
      vertex -12.9443 9.45637 47.9995
    endloop
  endfacet
  facet normal 0 0 1
    outer loop
      vertex -13.7533 10.0474 47.9995
      vertex -14.6167 6.54363 47.9995
      vertex -12.9443 9.45637 47.9995
    endloop
  endfacet
  facet normal -0 0 1
    outer loop
      vertex -15.5303 6.95261 47.9995
      vertex -14.6167 6.54363 47.9995
      vertex -13.7533 10.0474 47.9995
    endloop
  endfacet
  facet normal 0 0 1
    outer loop
      vertex -15.5303 6.95261 47.9995
      vertex -15.6504 3.34491 47.9995
      vertex -14.6167 6.54363 47.9995
    endloop
  endfacet
  facet normal -0 0 1
    outer loop
      vertex -16.6285 3.55397 47.9995
      vertex -15.6504 3.34491 47.9995
      vertex -15.5303 6.95261 47.9995
    endloop
  endfacet
  facet normal 0 0 1
    outer loop
      vertex -15.6504 3.34491 47.9995
      vertex -16.6285 3.55397 47.9995
      vertex -16 0 47.9995
    endloop
  endfacet
  facet normal -0 0 1
    outer loop
      vertex 15.6504 -3.34491 47.9995
      vertex 16.6285 -3.55397 47.9995
      vertex 16 0 47.9995
    endloop
  endfacet
  facet normal 0 0 1
    outer loop
      vertex 15.6504 -3.34491 47.9995
      vertex 15.5303 -6.95261 47.9995
      vertex 16.6285 -3.55397 47.9995
    endloop
  endfacet
  facet normal -0 0 1
    outer loop
      vertex 14.6167 -6.54363 47.9995
      vertex 15.5303 -6.95261 47.9995
      vertex 15.6504 -3.34491 47.9995
    endloop
  endfacet
  facet normal 0 0 1
    outer loop
      vertex 14.6167 -6.54363 47.9995
      vertex 13.7533 -10.0474 47.9995
      vertex 15.5303 -6.95261 47.9995
    endloop
  endfacet
  facet normal -0 0 1
    outer loop
      vertex 12.9443 -9.45637 47.9995
      vertex 13.7533 -10.0474 47.9995
      vertex 14.6167 -6.54363 47.9995
    endloop
  endfacet
  facet normal 0 0 1
    outer loop
      vertex 10.7061 -11.9558 47.9995
      vertex 13.7533 -10.0474 47.9995
      vertex 12.9443 -9.45637 47.9995
    endloop
  endfacet
  facet normal 0 0 1
    outer loop
      vertex 13.7533 -10.0474 47.9995
      vertex 10.7061 -11.9558 47.9995
      vertex 11.3752 -12.7031 47.9995
    endloop
  endfacet
  facet normal 0 0 1
    outer loop
      vertex 8 -13.9327 47.9995
      vertex 11.3752 -12.7031 47.9995
      vertex 10.7061 -11.9558 47.9995
    endloop
  endfacet
  facet normal 0 0 1
    outer loop
      vertex 11.3752 -12.7031 47.9995
      vertex 8 -13.9327 47.9995
      vertex 8.5 -14.8035 47.9995
    endloop
  endfacet
  facet normal 0 0 1
    outer loop
      vertex 8 -13.9327 47.9995
      vertex 5.25329 -16.257 47.9995
      vertex 8.5 -14.8035 47.9995
    endloop
  endfacet
  facet normal -0 0 1
    outer loop
      vertex 4.94427 -15.3007 47.9995
      vertex 5.25329 -16.257 47.9995
      vertex 8 -13.9327 47.9995
    endloop
  endfacet
  facet normal 0 0 1
    outer loop
      vertex 4.94427 -15.3007 47.9995
      vertex 1.77698 -17 47.9995
      vertex 5.25329 -16.257 47.9995
    endloop
  endfacet
  facet normal -0 0 1
    outer loop
      vertex 1.67245 -16 47.9995
      vertex 1.77698 -17 47.9995
      vertex 4.94427 -15.3007 47.9995
    endloop
  endfacet
  facet normal -0 0 1
    outer loop
      vertex -1.67245 -16 47.9995
      vertex 1.77698 -17 47.9995
      vertex 1.67245 -16 47.9995
    endloop
  endfacet
  facet normal 0 0 1
    outer loop
      vertex -1.67245 -16 47.9995
      vertex -1.77698 -17 47.9995
      vertex 1.77698 -17 47.9995
    endloop
  endfacet
  facet normal 0 0 1
    outer loop
      vertex -4.94427 -15.3007 47.9995
      vertex -1.77698 -17 47.9995
      vertex -1.67245 -16 47.9995
    endloop
  endfacet
  facet normal 0 0 1
    outer loop
      vertex -4.94427 -15.3007 47.9995
      vertex -5.25329 -16.257 47.9995
      vertex -1.77698 -17 47.9995
    endloop
  endfacet
  facet normal 0 0 1
    outer loop
      vertex -8 -13.9327 47.9995
      vertex -5.25329 -16.257 47.9995
      vertex -4.94427 -15.3007 47.9995
    endloop
  endfacet
  facet normal 0 0 1
    outer loop
      vertex -8 -13.9327 47.9995
      vertex -8.5 -14.8035 47.9995
      vertex -5.25329 -16.257 47.9995
    endloop
  endfacet
  facet normal -0 0 1
    outer loop
      vertex -11.3752 -12.7031 47.9995
      vertex -8 -13.9327 47.9995
      vertex -10.7061 -11.9558 47.9995
    endloop
  endfacet
  facet normal 0 0 1
    outer loop
      vertex -8 -13.9327 47.9995
      vertex -11.3752 -12.7031 47.9995
      vertex -8.5 -14.8035 47.9995
    endloop
  endfacet
  facet normal -0 0 1
    outer loop
      vertex -13.7533 -10.0474 47.9995
      vertex -10.7061 -11.9558 47.9995
      vertex -12.9443 -9.45637 47.9995
    endloop
  endfacet
  facet normal 0 0 1
    outer loop
      vertex -10.7061 -11.9558 47.9995
      vertex -13.7533 -10.0474 47.9995
      vertex -11.3752 -12.7031 47.9995
    endloop
  endfacet
  facet normal 0 0 1
    outer loop
      vertex -14.6167 -6.54363 47.9995
      vertex -13.7533 -10.0474 47.9995
      vertex -12.9443 -9.45637 47.9995
    endloop
  endfacet
  facet normal 0 0 1
    outer loop
      vertex -14.6167 -6.54363 47.9995
      vertex -15.5303 -6.95261 47.9995
      vertex -13.7533 -10.0474 47.9995
    endloop
  endfacet
  facet normal 0 0 1
    outer loop
      vertex -15.6504 -3.34491 47.9995
      vertex -15.5303 -6.95261 47.9995
      vertex -14.6167 -6.54363 47.9995
    endloop
  endfacet
  facet normal 0 0 1
    outer loop
      vertex -16.6285 -3.55397 47.9995
      vertex -15.6504 -3.34491 47.9995
      vertex -16 0 47.9995
    endloop
  endfacet
  facet normal 0 0 1
    outer loop
      vertex -17 0 47.9995
      vertex -16 0 47.9995
      vertex -16.6285 3.55397 47.9995
    endloop
  endfacet
  facet normal 0 0 1
    outer loop
      vertex -15.6504 -3.34491 47.9995
      vertex -16.6285 -3.55397 47.9995
      vertex -15.5303 -6.95261 47.9995
    endloop
  endfacet
  facet normal 0 0 1
    outer loop
      vertex -16 0 47.9995
      vertex -17 0 47.9995
      vertex -16.6285 -3.55397 47.9995
    endloop
  endfacet
  facet normal 0.408604 0.912712 -0
    outer loop
      vertex -5.25329 -16.257 47.9995
      vertex -8.5 -14.8035 56.9995
      vertex -5.25329 -16.257 56.9995
    endloop
  endfacet
  facet normal 0.408604 0.912712 0
    outer loop
      vertex -8.5 -14.8035 56.9995
      vertex -5.25329 -16.257 47.9995
      vertex -8.5 -14.8035 47.9995
    endloop
  endfacet
  facet normal 0.951553 0.307485 0
    outer loop
      vertex -15.5303 -6.95261 56.9995
      vertex -16.6285 -3.55397 47.9995
      vertex -16.6285 -3.55397 56.9995
    endloop
  endfacet
  facet normal 0.951553 0.307485 0
    outer loop
      vertex -16.6285 -3.55397 47.9995
      vertex -15.5303 -6.95261 56.9995
      vertex -15.5303 -6.95261 47.9995
    endloop
  endfacet
  facet normal 0.744969 0.667099 0
    outer loop
      vertex -11.3752 -12.7031 56.9995
      vertex -13.7533 -10.0474 47.9995
      vertex -13.7533 -10.0474 56.9995
    endloop
  endfacet
  facet normal 0.744969 0.667099 0
    outer loop
      vertex -13.7533 -10.0474 47.9995
      vertex -11.3752 -12.7031 56.9995
      vertex -11.3752 -12.7031 47.9995
    endloop
  endfacet
  facet normal -0.867211 -0.497942 0
    outer loop
      vertex 14.6167 6.54363 41.9995
      vertex 12.9443 9.45637 47.9995
      vertex 12.9443 9.45637 41.9995
    endloop
  endfacet
  facet normal -0.867211 -0.497942 0
    outer loop
      vertex 12.9443 9.45637 47.9995
      vertex 14.6167 6.54363 41.9995
      vertex 14.6167 6.54363 47.9995
    endloop
  endfacet
  facet normal -0.744969 -0.667099 0
    outer loop
      vertex 12.9443 9.45637 41.9995
      vertex 10.7061 11.9558 47.9995
      vertex 10.7061 11.9558 41.9995
    endloop
  endfacet
  facet normal -0.744969 -0.667099 0
    outer loop
      vertex 10.7061 11.9558 47.9995
      vertex 12.9443 9.45637 41.9995
      vertex 12.9443 9.45637 47.9995
    endloop
  endfacet
  facet normal -0.209007 -0.977914 0
    outer loop
      vertex 1.67245 16 41.9995
      vertex 4.94427 15.3007 47.9995
      vertex 1.67245 16 47.9995
    endloop
  endfacet
  facet normal -0.209007 -0.977914 -0
    outer loop
      vertex 4.94427 15.3007 47.9995
      vertex 1.67245 16 41.9995
      vertex 4.94427 15.3007 41.9995
    endloop
  endfacet
  facet normal 0.408604 -0.912712 0
    outer loop
      vertex -8 13.9327 41.9995
      vertex -4.94427 15.3007 47.9995
      vertex -8 13.9327 47.9995
    endloop
  endfacet
  facet normal 0.408604 -0.912712 0
    outer loop
      vertex -4.94427 15.3007 47.9995
      vertex -8 13.9327 41.9995
      vertex -4.94427 15.3007 41.9995
    endloop
  endfacet
  facet normal -0.994581 0.103962 0
    outer loop
      vertex 15.6504 -3.34491 41.9995
      vertex 16 0 47.9995
      vertex 16 0 41.9995
    endloop
  endfacet
  facet normal -0.994581 0.103962 0
    outer loop
      vertex 16 0 47.9995
      vertex 15.6504 -3.34491 41.9995
      vertex 15.6504 -3.34491 47.9995
    endloop
  endfacet
  facet normal -0.951553 -0.307485 0
    outer loop
      vertex 15.6504 3.34491 41.9995
      vertex 14.6167 6.54363 47.9995
      vertex 14.6167 6.54363 41.9995
    endloop
  endfacet
  facet normal -0.951553 -0.307485 0
    outer loop
      vertex 14.6167 6.54363 47.9995
      vertex 15.6504 3.34491 41.9995
      vertex 15.6504 3.34491 47.9995
    endloop
  endfacet
  facet normal -0.589898 -0.807477 0
    outer loop
      vertex 8 13.9327 41.9995
      vertex 10.7061 11.9558 47.9995
      vertex 8 13.9327 47.9995
    endloop
  endfacet
  facet normal -0.589898 -0.807477 -0
    outer loop
      vertex 10.7061 11.9558 47.9995
      vertex 8 13.9327 41.9995
      vertex 10.7061 11.9558 41.9995
    endloop
  endfacet
  facet normal 0 -1 0
    outer loop
      vertex -1.67245 16 41.9995
      vertex 1.67245 16 47.9995
      vertex -1.67245 16 47.9995
    endloop
  endfacet
  facet normal 0 -1 -0
    outer loop
      vertex 1.67245 16 47.9995
      vertex -1.67245 16 41.9995
      vertex 1.67245 16 41.9995
    endloop
  endfacet
  facet normal -0.408604 -0.912712 0
    outer loop
      vertex 4.94427 15.3007 41.9995
      vertex 8 13.9327 47.9995
      vertex 4.94427 15.3007 47.9995
    endloop
  endfacet
  facet normal -0.408604 -0.912712 -0
    outer loop
      vertex 8 13.9327 47.9995
      vertex 4.94427 15.3007 41.9995
      vertex 8 13.9327 41.9995
    endloop
  endfacet
  facet normal 0.994581 -0.103962 0
    outer loop
      vertex -16 0 47.9995
      vertex -15.6504 3.34491 41.9995
      vertex -15.6504 3.34491 47.9995
    endloop
  endfacet
  facet normal 0.994581 -0.103962 0
    outer loop
      vertex -15.6504 3.34491 41.9995
      vertex -16 0 47.9995
      vertex -16 0 41.9995
    endloop
  endfacet
  facet normal 0.867211 -0.497942 0
    outer loop
      vertex -14.6167 6.54363 47.9995
      vertex -12.9443 9.45637 41.9995
      vertex -12.9443 9.45637 47.9995
    endloop
  endfacet
  facet normal 0.867211 -0.497942 0
    outer loop
      vertex -12.9443 9.45637 41.9995
      vertex -14.6167 6.54363 47.9995
      vertex -14.6167 6.54363 41.9995
    endloop
  endfacet
  facet normal 0.589898 -0.807478 0
    outer loop
      vertex -10.7061 11.9558 41.9995
      vertex -8 13.9327 47.9995
      vertex -10.7061 11.9558 47.9995
    endloop
  endfacet
  facet normal 0.589898 -0.807478 0
    outer loop
      vertex -8 13.9327 47.9995
      vertex -10.7061 11.9558 41.9995
      vertex -8 13.9327 41.9995
    endloop
  endfacet
  facet normal 0.209007 -0.977914 0
    outer loop
      vertex -4.94427 15.3007 41.9995
      vertex -1.67245 16 47.9995
      vertex -4.94427 15.3007 47.9995
    endloop
  endfacet
  facet normal 0.209007 -0.977914 0
    outer loop
      vertex -1.67245 16 47.9995
      vertex -4.94427 15.3007 41.9995
      vertex -1.67245 16 41.9995
    endloop
  endfacet
  facet normal 0.744969 -0.667099 0
    outer loop
      vertex -12.9443 9.45637 47.9995
      vertex -10.7061 11.9558 41.9995
      vertex -10.7061 11.9558 47.9995
    endloop
  endfacet
  facet normal 0.744969 -0.667099 0
    outer loop
      vertex -10.7061 11.9558 41.9995
      vertex -12.9443 9.45637 47.9995
      vertex -12.9443 9.45637 41.9995
    endloop
  endfacet
  facet normal -0.994581 -0.103962 0
    outer loop
      vertex 16 0 41.9995
      vertex 15.6504 3.34491 47.9995
      vertex 15.6504 3.34491 41.9995
    endloop
  endfacet
  facet normal -0.994581 -0.103962 0
    outer loop
      vertex 15.6504 3.34491 47.9995
      vertex 16 0 41.9995
      vertex 16 0 47.9995
    endloop
  endfacet
  facet normal -0.951553 0.307485 0
    outer loop
      vertex 14.6167 -6.54363 41.9995
      vertex 15.6504 -3.34491 47.9995
      vertex 15.6504 -3.34491 41.9995
    endloop
  endfacet
  facet normal -0.951553 0.307485 0
    outer loop
      vertex 15.6504 -3.34491 47.9995
      vertex 14.6167 -6.54363 41.9995
      vertex 14.6167 -6.54363 47.9995
    endloop
  endfacet
  facet normal 0.867211 0.497942 0
    outer loop
      vertex -12.9443 -9.45637 47.9995
      vertex -14.6167 -6.54363 41.9995
      vertex -14.6167 -6.54363 47.9995
    endloop
  endfacet
  facet normal 0.867211 0.497942 0
    outer loop
      vertex -14.6167 -6.54363 41.9995
      vertex -12.9443 -9.45637 47.9995
      vertex -12.9443 -9.45637 41.9995
    endloop
  endfacet
  facet normal -0.589898 0.807477 0
    outer loop
      vertex 10.7061 -11.9558 41.9995
      vertex 8 -13.9327 47.9995
      vertex 10.7061 -11.9558 47.9995
    endloop
  endfacet
  facet normal -0.589898 0.807477 0
    outer loop
      vertex 8 -13.9327 47.9995
      vertex 10.7061 -11.9558 41.9995
      vertex 8 -13.9327 41.9995
    endloop
  endfacet
  facet normal 0.951553 -0.307485 0
    outer loop
      vertex -15.6504 3.34491 47.9995
      vertex -14.6167 6.54363 41.9995
      vertex -14.6167 6.54363 47.9995
    endloop
  endfacet
  facet normal 0.951553 -0.307485 0
    outer loop
      vertex -14.6167 6.54363 41.9995
      vertex -15.6504 3.34491 47.9995
      vertex -15.6504 3.34491 41.9995
    endloop
  endfacet
  facet normal -0.867211 0.497942 0
    outer loop
      vertex 12.9443 -9.45637 41.9995
      vertex 14.6167 -6.54363 47.9995
      vertex 14.6167 -6.54363 41.9995
    endloop
  endfacet
  facet normal -0.867211 0.497942 0
    outer loop
      vertex 14.6167 -6.54363 47.9995
      vertex 12.9443 -9.45637 41.9995
      vertex 12.9443 -9.45637 47.9995
    endloop
  endfacet
  facet normal 0.994581 0.103962 0
    outer loop
      vertex -15.6504 -3.34491 47.9995
      vertex -16 0 41.9995
      vertex -16 0 47.9995
    endloop
  endfacet
  facet normal 0.994581 0.103962 0
    outer loop
      vertex -16 0 41.9995
      vertex -15.6504 -3.34491 47.9995
      vertex -15.6504 -3.34491 41.9995
    endloop
  endfacet
  facet normal -0.209007 0.977914 0
    outer loop
      vertex 4.94427 -15.3007 41.9995
      vertex 1.67245 -16 47.9995
      vertex 4.94427 -15.3007 47.9995
    endloop
  endfacet
  facet normal -0.209007 0.977914 0
    outer loop
      vertex 1.67245 -16 47.9995
      vertex 4.94427 -15.3007 41.9995
      vertex 1.67245 -16 41.9995
    endloop
  endfacet
  facet normal -0.408604 0.912712 0
    outer loop
      vertex 8 -13.9327 41.9995
      vertex 4.94427 -15.3007 47.9995
      vertex 8 -13.9327 47.9995
    endloop
  endfacet
  facet normal -0.408604 0.912712 0
    outer loop
      vertex 4.94427 -15.3007 47.9995
      vertex 8 -13.9327 41.9995
      vertex 4.94427 -15.3007 41.9995
    endloop
  endfacet
  facet normal 0.209007 0.977914 -0
    outer loop
      vertex -1.67245 -16 41.9995
      vertex -4.94427 -15.3007 47.9995
      vertex -1.67245 -16 47.9995
    endloop
  endfacet
  facet normal 0.209007 0.977914 0
    outer loop
      vertex -4.94427 -15.3007 47.9995
      vertex -1.67245 -16 41.9995
      vertex -4.94427 -15.3007 41.9995
    endloop
  endfacet
  facet normal 0 1 -0
    outer loop
      vertex 1.67245 -16 41.9995
      vertex -1.67245 -16 47.9995
      vertex 1.67245 -16 47.9995
    endloop
  endfacet
  facet normal 0 1 0
    outer loop
      vertex -1.67245 -16 47.9995
      vertex 1.67245 -16 41.9995
      vertex -1.67245 -16 41.9995
    endloop
  endfacet
  facet normal 0.951553 0.307485 0
    outer loop
      vertex -14.6167 -6.54363 47.9995
      vertex -15.6504 -3.34491 41.9995
      vertex -15.6504 -3.34491 47.9995
    endloop
  endfacet
  facet normal 0.951553 0.307485 0
    outer loop
      vertex -15.6504 -3.34491 41.9995
      vertex -14.6167 -6.54363 47.9995
      vertex -14.6167 -6.54363 41.9995
    endloop
  endfacet
  facet normal 0.744969 0.667099 0
    outer loop
      vertex -10.7061 -11.9558 47.9995
      vertex -12.9443 -9.45637 41.9995
      vertex -12.9443 -9.45637 47.9995
    endloop
  endfacet
  facet normal 0.744969 0.667099 0
    outer loop
      vertex -12.9443 -9.45637 41.9995
      vertex -10.7061 -11.9558 47.9995
      vertex -10.7061 -11.9558 41.9995
    endloop
  endfacet
  facet normal -0.744969 0.667099 0
    outer loop
      vertex 10.7061 -11.9558 41.9995
      vertex 12.9443 -9.45637 47.9995
      vertex 12.9443 -9.45637 41.9995
    endloop
  endfacet
  facet normal -0.744969 0.667099 0
    outer loop
      vertex 12.9443 -9.45637 47.9995
      vertex 10.7061 -11.9558 41.9995
      vertex 10.7061 -11.9558 47.9995
    endloop
  endfacet
  facet normal 0.589898 0.807477 -0
    outer loop
      vertex -8 -13.9327 41.9995
      vertex -10.7061 -11.9558 47.9995
      vertex -8 -13.9327 47.9995
    endloop
  endfacet
  facet normal 0.589898 0.807477 0
    outer loop
      vertex -10.7061 -11.9558 47.9995
      vertex -8 -13.9327 41.9995
      vertex -10.7061 -11.9558 41.9995
    endloop
  endfacet
  facet normal 0.408604 0.912712 -0
    outer loop
      vertex -4.94427 -15.3007 41.9995
      vertex -8 -13.9327 47.9995
      vertex -4.94427 -15.3007 47.9995
    endloop
  endfacet
  facet normal 0.408604 0.912712 0
    outer loop
      vertex -8 -13.9327 47.9995
      vertex -4.94427 -15.3007 41.9995
      vertex -8 -13.9327 41.9995
    endloop
  endfacet
  facet normal -0.736908 -0.423143 0.527177
    outer loop
      vertex 13.7533 10.0474 56.9995
      vertex 44.0216 32.0878 117.001
      vertex 43.9925 32.1385 117.001
    endloop
  endfacet
  facet normal -0.736917 -0.423129 0.527177
    outer loop
      vertex 44.0216 32.0878 117.001
      vertex 13.7533 10.0474 56.9995
      vertex 15.5303 6.95261 56.9995
    endloop
  endfacet
  facet normal -0.346903 0.774888 0.5284
    outer loop
      vertex 16.8568 -51.9773 117.001
      vertex 27.1888 -47.3518 117.001
      vertex 8.5 -14.8035 56.9995
    endloop
  endfacet
  facet normal 0.346903 0.774888 0.5284
    outer loop
      vertex -16.8568 -51.9773 117.001
      vertex -8.5 -14.8035 56.9995
      vertex -27.1888 -47.3518 117.001
    endloop
  endfacet
  facet normal 0.50096 -0.685735 0.528022
    outer loop
      vertex -11.3752 12.7031 56.9995
      vertex -27.2359 47.3174 117.001
      vertex -36.3858 40.6331 117.001
    endloop
  endfacet
  facet normal 0.845458 0.0883746 0.526679
    outer loop
      vertex -53.1955 -11.3098 117.001
      vertex -17 0 56.9995
      vertex -54.3777 0 117.001
    endloop
  endfacet
  facet normal -0.632832 -0.566724 0.527587
    outer loop
      vertex 11.3752 12.7031 56.9995
      vertex 43.9925 32.1385 117.001
      vertex 43.9535 32.1819 117.001
    endloop
  endfacet
  facet normal -0.632851 -0.5667 0.527589
    outer loop
      vertex 43.9925 32.1385 117.001
      vertex 11.3752 12.7031 56.9995
      vertex 13.7533 10.0474 56.9995
    endloop
  endfacet
  facet normal -0.845457 -0.0883816 0.526679
    outer loop
      vertex 16.6285 3.55397 56.9995
      vertex 53.1955 11.3098 117.001
      vertex 53.1894 11.368 117.001
    endloop
  endfacet
  facet normal -0.845458 -0.0883744 0.526679
    outer loop
      vertex 53.1955 11.3098 117.001
      vertex 16.6285 3.55397 56.9995
      vertex 17 0 56.9995
    endloop
  endfacet
  facet normal -0.736917 0.423128 0.527177
    outer loop
      vertex 44.0216 -32.0878 117.001
      vertex 49.6765 -22.2392 117.001
      vertex 15.5303 -6.95261 56.9995
    endloop
  endfacet
  facet normal -0.177425 0.830086 0.528657
    outer loop
      vertex 5.25329 -16.257 56.9995
      vertex 16.7467 -52.0133 117.001
      vertex 16.8036 -52.0011 117.001
    endloop
  endfacet
  facet normal -0.177412 0.830089 0.528657
    outer loop
      vertex 16.7467 -52.0133 117.001
      vertex 5.25329 -16.257 56.9995
      vertex 1.77698 -17 56.9995
    endloop
  endfacet
  facet normal -0.736917 0.423129 0.527177
    outer loop
      vertex 13.7533 -10.0474 56.9995
      vertex 44.0216 -32.0878 117.001
      vertex 15.5303 -6.95261 56.9995
    endloop
  endfacet
  facet normal -0.736908 0.423143 0.527177
    outer loop
      vertex 44.0216 -32.0878 117.001
      vertex 13.7533 -10.0474 56.9995
      vertex 43.9925 -32.1385 117.001
    endloop
  endfacet
  facet normal -0.845458 -0.0883746 0.526679
    outer loop
      vertex 54.3777 0 117.001
      vertex 53.1955 11.3098 117.001
      vertex 17 0 56.9995
    endloop
  endfacet
  facet normal -0.808777 -0.261352 0.526854
    outer loop
      vertex 15.5303 6.95261 56.9995
      vertex 53.1894 11.368 117.001
      vertex 53.1714 11.4237 117.001
    endloop
  endfacet
  facet normal -0.808778 -0.261348 0.526855
    outer loop
      vertex 53.1894 11.368 117.001
      vertex 15.5303 6.95261 56.9995
      vertex 16.6285 3.55397 56.9995
    endloop
  endfacet
  facet normal -0.632851 0.5667 0.527589
    outer loop
      vertex 36.3858 -40.6331 117.001
      vertex 43.9535 -32.1819 117.001
      vertex 11.3752 -12.7031 56.9995
    endloop
  endfacet
  facet normal 0.632851 0.5667 0.527589
    outer loop
      vertex -43.9925 -32.1385 117.001
      vertex -11.3752 -12.7031 56.9995
      vertex -13.7533 -10.0474 56.9995
    endloop
  endfacet
  facet normal 0.632832 0.566724 0.527587
    outer loop
      vertex -11.3752 -12.7031 56.9995
      vertex -43.9925 -32.1385 117.001
      vertex -43.9535 -32.1819 117.001
    endloop
  endfacet
  facet normal 0.808778 0.261348 0.526855
    outer loop
      vertex -49.6765 -22.2392 117.001
      vertex -15.5303 -6.95261 56.9995
      vertex -53.1714 -11.4237 117.001
    endloop
  endfacet
  facet normal 0.736908 -0.423143 0.527177
    outer loop
      vertex -44.0216 32.0878 117.001
      vertex -13.7533 10.0474 56.9995
      vertex -43.9925 32.1385 117.001
    endloop
  endfacet
  facet normal 0.736917 -0.423129 0.527177
    outer loop
      vertex -13.7533 10.0474 56.9995
      vertex -44.0216 32.0878 117.001
      vertex -15.5303 6.95261 56.9995
    endloop
  endfacet
  facet normal -0.177412 -0.830089 0.528657
    outer loop
      vertex 5.25329 16.257 56.9995
      vertex 5.68401 54.3777 117.001
      vertex 1.77698 17 56.9995
    endloop
  endfacet
  facet normal -0.177374 -0.830095 0.52866
    outer loop
      vertex 5.68401 54.3777 117.001
      vertex 5.25329 16.257 56.9995
      vertex 5.74095 54.3655 117.001
    endloop
  endfacet
  facet normal -0.845458 0.0883746 0.526679
    outer loop
      vertex 53.1955 -11.3098 117.001
      vertex 54.3777 0 117.001
      vertex 17 0 56.9995
    endloop
  endfacet
  facet normal -0.50096 0.685735 0.528022
    outer loop
      vertex 27.2359 -47.3174 117.001
      vertex 36.3858 -40.6331 117.001
      vertex 11.3752 -12.7031 56.9995
    endloop
  endfacet
  facet normal -0.346903 0.774888 0.5284
    outer loop
      vertex 8.5 -14.8035 56.9995
      vertex 16.8036 -52.0011 117.001
      vertex 16.8568 -51.9773 117.001
    endloop
  endfacet
  facet normal -0.346903 0.774888 0.5284
    outer loop
      vertex 16.8036 -52.0011 117.001
      vertex 8.5 -14.8035 56.9995
      vertex 5.25329 -16.257 56.9995
    endloop
  endfacet
  facet normal -0.736917 -0.423128 0.527177
    outer loop
      vertex 49.6765 22.2392 117.001
      vertex 44.0216 32.0878 117.001
      vertex 15.5303 6.95261 56.9995
    endloop
  endfacet
  facet normal -0 0.848779 0.528748
    outer loop
      vertex -1.77698 -17 56.9995
      vertex -5.62581 -54.3777 117.001
      vertex 1.77698 -17 56.9995
    endloop
  endfacet
  facet normal 0 0.848779 0.528748
    outer loop
      vertex -5.62581 -54.3777 117.001
      vertex -1.77698 -17 56.9995
      vertex -5.68401 -54.3777 117.001
    endloop
  endfacet
  facet normal 0.736917 0.423128 0.527177
    outer loop
      vertex -44.0216 -32.0878 117.001
      vertex -15.5303 -6.95261 56.9995
      vertex -49.6765 -22.2392 117.001
    endloop
  endfacet
  facet normal 0.845458 -0.0883746 0.526679
    outer loop
      vertex -17 0 56.9995
      vertex -53.1955 11.3098 117.001
      vertex -54.3777 0 117.001
    endloop
  endfacet
  facet normal 0.808778 -0.261348 0.526855
    outer loop
      vertex -15.5303 6.95261 56.9995
      vertex -49.6765 22.2392 117.001
      vertex -53.1714 11.4237 117.001
    endloop
  endfacet
  facet normal 0.632851 -0.5667 0.527589
    outer loop
      vertex -11.3752 12.7031 56.9995
      vertex -36.3858 40.6331 117.001
      vertex -43.9535 32.1819 117.001
    endloop
  endfacet
  facet normal 0.177413 -0.830088 0.528657
    outer loop
      vertex -1.77698 17 56.9995
      vertex -5.68401 54.3777 117.001
      vertex -16.7467 52.0133 117.001
    endloop
  endfacet
  facet normal 0.177425 -0.830086 0.528657
    outer loop
      vertex -5.25329 16.257 56.9995
      vertex -16.7467 52.0133 117.001
      vertex -16.8036 52.0011 117.001
    endloop
  endfacet
  facet normal 0.177412 -0.830089 0.528657
    outer loop
      vertex -16.7467 52.0133 117.001
      vertex -5.25329 16.257 56.9995
      vertex -1.77698 17 56.9995
    endloop
  endfacet
  facet normal -0.50096 -0.685735 0.528022
    outer loop
      vertex 11.3752 12.7031 56.9995
      vertex 27.1888 47.3518 117.001
      vertex 8.5 14.8035 56.9995
    endloop
  endfacet
  facet normal -0.500979 -0.685722 0.52802
    outer loop
      vertex 27.1888 47.3518 117.001
      vertex 11.3752 12.7031 56.9995
      vertex 27.2359 47.3174 117.001
    endloop
  endfacet
  facet normal -0.808778 0.261348 0.526855
    outer loop
      vertex 49.6765 -22.2392 117.001
      vertex 53.1714 -11.4237 117.001
      vertex 15.5303 -6.95261 56.9995
    endloop
  endfacet
  facet normal -0.500979 0.685722 0.52802
    outer loop
      vertex 11.3752 -12.7031 56.9995
      vertex 27.1888 -47.3518 117.001
      vertex 27.2359 -47.3174 117.001
    endloop
  endfacet
  facet normal -0.50096 0.685735 0.528022
    outer loop
      vertex 27.1888 -47.3518 117.001
      vertex 11.3752 -12.7031 56.9995
      vertex 8.5 -14.8035 56.9995
    endloop
  endfacet
  facet normal -0.808778 -0.261348 0.526855
    outer loop
      vertex 53.1714 11.4237 117.001
      vertex 49.6765 22.2392 117.001
      vertex 15.5303 6.95261 56.9995
    endloop
  endfacet
  facet normal 0.50096 0.685735 0.528022
    outer loop
      vertex -11.3752 -12.7031 56.9995
      vertex -27.1888 -47.3518 117.001
      vertex -8.5 -14.8035 56.9995
    endloop
  endfacet
  facet normal 0.500979 0.685722 0.52802
    outer loop
      vertex -27.1888 -47.3518 117.001
      vertex -11.3752 -12.7031 56.9995
      vertex -27.2359 -47.3174 117.001
    endloop
  endfacet
  facet normal 0.177412 0.830089 0.528657
    outer loop
      vertex -5.25329 -16.257 56.9995
      vertex -5.68401 -54.3777 117.001
      vertex -1.77698 -17 56.9995
    endloop
  endfacet
  facet normal 0.177374 0.830095 0.52866
    outer loop
      vertex -5.68401 -54.3777 117.001
      vertex -5.25329 -16.257 56.9995
      vertex -5.74095 -54.3655 117.001
    endloop
  endfacet
  facet normal 0.632851 0.5667 0.527589
    outer loop
      vertex -36.3858 -40.6331 117.001
      vertex -11.3752 -12.7031 56.9995
      vertex -43.9535 -32.1819 117.001
    endloop
  endfacet
  facet normal 0.50096 0.685735 0.528022
    outer loop
      vertex -27.2359 -47.3174 117.001
      vertex -11.3752 -12.7031 56.9995
      vertex -36.3858 -40.6331 117.001
    endloop
  endfacet
  facet normal 0.845457 -0.0883816 0.526679
    outer loop
      vertex -53.1955 11.3098 117.001
      vertex -16.6285 3.55397 56.9995
      vertex -53.1894 11.368 117.001
    endloop
  endfacet
  facet normal 0.845458 -0.0883744 0.526679
    outer loop
      vertex -16.6285 3.55397 56.9995
      vertex -53.1955 11.3098 117.001
      vertex -17 0 56.9995
    endloop
  endfacet
  facet normal 0.808777 -0.261352 0.526854
    outer loop
      vertex -53.1894 11.368 117.001
      vertex -15.5303 6.95261 56.9995
      vertex -53.1714 11.4237 117.001
    endloop
  endfacet
  facet normal 0.808778 -0.261348 0.526855
    outer loop
      vertex -15.5303 6.95261 56.9995
      vertex -53.1894 11.368 117.001
      vertex -16.6285 3.55397 56.9995
    endloop
  endfacet
  facet normal 0.736917 -0.423128 0.527177
    outer loop
      vertex -15.5303 6.95261 56.9995
      vertex -44.0216 32.0878 117.001
      vertex -49.6765 22.2392 117.001
    endloop
  endfacet
  facet normal 0.500966 -0.685731 0.528022
    outer loop
      vertex -11.3752 12.7031 56.9995
      vertex -27.1888 47.3518 117.001
      vertex -27.2359 47.3174 117.001
    endloop
  endfacet
  facet normal 0.50096 -0.685735 0.528022
    outer loop
      vertex -27.1888 47.3518 117.001
      vertex -11.3752 12.7031 56.9995
      vertex -8.5 14.8035 56.9995
    endloop
  endfacet
  facet normal 0.346903 -0.774888 0.5284
    outer loop
      vertex -8.5 14.8035 56.9995
      vertex -16.8036 52.0011 117.001
      vertex -16.8568 51.9773 117.001
    endloop
  endfacet
  facet normal 0.346903 -0.774888 0.5284
    outer loop
      vertex -16.8036 52.0011 117.001
      vertex -8.5 14.8035 56.9995
      vertex -5.25329 16.257 56.9995
    endloop
  endfacet
  facet normal 0.346903 -0.774888 0.5284
    outer loop
      vertex -8.5 14.8035 56.9995
      vertex -16.8568 51.9773 117.001
      vertex -27.1888 47.3518 117.001
    endloop
  endfacet
  facet normal -2.86285e-007 -0.848779 0.528748
    outer loop
      vertex -1.77698 17 56.9995
      vertex 5.62581 54.3777 117.001
      vertex -5.68401 54.3777 117.001
    endloop
  endfacet
  facet normal 0 -0.848779 0.528748
    outer loop
      vertex 1.77698 17 56.9995
      vertex 5.62581 54.3777 117.001
      vertex -1.77698 17 56.9995
    endloop
  endfacet
  facet normal 0 -0.848779 0.528748
    outer loop
      vertex 5.62581 54.3777 117.001
      vertex 1.77698 17 56.9995
      vertex 5.68401 54.3777 117.001
    endloop
  endfacet
  facet normal -0.845458 0.0883744 0.526679
    outer loop
      vertex 16.6285 -3.55397 56.9995
      vertex 53.1955 -11.3098 117.001
      vertex 17 0 56.9995
    endloop
  endfacet
  facet normal -0.845457 0.0883816 0.526679
    outer loop
      vertex 53.1955 -11.3098 117.001
      vertex 16.6285 -3.55397 56.9995
      vertex 53.1894 -11.368 117.001
    endloop
  endfacet
  facet normal -0.808778 0.261348 0.526855
    outer loop
      vertex 15.5303 -6.95261 56.9995
      vertex 53.1894 -11.368 117.001
      vertex 16.6285 -3.55397 56.9995
    endloop
  endfacet
  facet normal -0.808777 0.261352 0.526854
    outer loop
      vertex 53.1894 -11.368 117.001
      vertex 15.5303 -6.95261 56.9995
      vertex 53.1714 -11.4237 117.001
    endloop
  endfacet
  facet normal -0.632851 0.5667 0.527589
    outer loop
      vertex 11.3752 -12.7031 56.9995
      vertex 43.9925 -32.1385 117.001
      vertex 13.7533 -10.0474 56.9995
    endloop
  endfacet
  facet normal -0.632832 0.566724 0.527587
    outer loop
      vertex 43.9925 -32.1385 117.001
      vertex 11.3752 -12.7031 56.9995
      vertex 43.9535 -32.1819 117.001
    endloop
  endfacet
  facet normal -0.50096 -0.685735 0.528022
    outer loop
      vertex 36.3858 40.6331 117.001
      vertex 27.2359 47.3174 117.001
      vertex 11.3752 12.7031 56.9995
    endloop
  endfacet
  facet normal -0.632851 -0.5667 0.527589
    outer loop
      vertex 43.9535 32.1819 117.001
      vertex 36.3858 40.6331 117.001
      vertex 11.3752 12.7031 56.9995
    endloop
  endfacet
  facet normal -0.346903 -0.774888 0.5284
    outer loop
      vertex 27.1888 47.3518 117.001
      vertex 16.8568 51.9773 117.001
      vertex 8.5 14.8035 56.9995
    endloop
  endfacet
  facet normal 0.736917 0.423129 0.527177
    outer loop
      vertex -44.0216 -32.0878 117.001
      vertex -13.7533 -10.0474 56.9995
      vertex -15.5303 -6.95261 56.9995
    endloop
  endfacet
  facet normal 0.736908 0.423143 0.527177
    outer loop
      vertex -13.7533 -10.0474 56.9995
      vertex -44.0216 -32.0878 117.001
      vertex -43.9925 -32.1385 117.001
    endloop
  endfacet
  facet normal 0.177413 0.830088 0.528657
    outer loop
      vertex -5.74095 -54.3655 117.001
      vertex -5.25329 -16.257 56.9995
      vertex -16.8036 -52.0011 117.001
    endloop
  endfacet
  facet normal 0.346903 0.774888 0.5284
    outer loop
      vertex -8.5 -14.8035 56.9995
      vertex -16.8036 -52.0011 117.001
      vertex -5.25329 -16.257 56.9995
    endloop
  endfacet
  facet normal 0.346903 0.774888 0.5284
    outer loop
      vertex -16.8036 -52.0011 117.001
      vertex -8.5 -14.8035 56.9995
      vertex -16.8568 -51.9773 117.001
    endloop
  endfacet
  facet normal -0.177413 0.830088 0.528657
    outer loop
      vertex 5.68401 -54.3777 117.001
      vertex 16.7467 -52.0133 117.001
      vertex 1.77698 -17 56.9995
    endloop
  endfacet
  facet normal 2.86285e-007 0.848779 0.528748
    outer loop
      vertex 5.68401 -54.3777 117.001
      vertex 1.77698 -17 56.9995
      vertex -5.62581 -54.3777 117.001
    endloop
  endfacet
  facet normal 0.808778 0.261348 0.526855
    outer loop
      vertex -53.1894 -11.368 117.001
      vertex -15.5303 -6.95261 56.9995
      vertex -16.6285 -3.55397 56.9995
    endloop
  endfacet
  facet normal 0.808777 0.261352 0.526854
    outer loop
      vertex -15.5303 -6.95261 56.9995
      vertex -53.1894 -11.368 117.001
      vertex -53.1714 -11.4237 117.001
    endloop
  endfacet
  facet normal 0.845458 0.0883744 0.526679
    outer loop
      vertex -53.1955 -11.3098 117.001
      vertex -16.6285 -3.55397 56.9995
      vertex -17 0 56.9995
    endloop
  endfacet
  facet normal 0.845457 0.0883816 0.526679
    outer loop
      vertex -16.6285 -3.55397 56.9995
      vertex -53.1955 -11.3098 117.001
      vertex -53.1894 -11.368 117.001
    endloop
  endfacet
  facet normal 0.632832 -0.566724 0.527587
    outer loop
      vertex -43.9925 32.1385 117.001
      vertex -11.3752 12.7031 56.9995
      vertex -43.9535 32.1819 117.001
    endloop
  endfacet
  facet normal 0.632851 -0.5667 0.527589
    outer loop
      vertex -11.3752 12.7031 56.9995
      vertex -43.9925 32.1385 117.001
      vertex -13.7533 10.0474 56.9995
    endloop
  endfacet
  facet normal -0.346903 -0.774888 0.5284
    outer loop
      vertex 8.5 14.8035 56.9995
      vertex 16.8036 52.0011 117.001
      vertex 5.25329 16.257 56.9995
    endloop
  endfacet
  facet normal -0.346903 -0.774888 0.5284
    outer loop
      vertex 16.8036 52.0011 117.001
      vertex 8.5 14.8035 56.9995
      vertex 16.8568 51.9773 117.001
    endloop
  endfacet
  facet normal -0.177413 -0.830088 0.528657
    outer loop
      vertex 16.8036 52.0011 117.001
      vertex 5.74095 54.3655 117.001
      vertex 5.25329 16.257 56.9995
    endloop
  endfacet
  facet normal 0 -1 0
    outer loop
      vertex -75 -65 116.999
      vertex 75 -65 117.001
      vertex -75 -65 117.001
    endloop
  endfacet
  facet normal 0 -1 -0
    outer loop
      vertex 75 -65 117.001
      vertex -75 -65 116.999
      vertex 75 -65 116.999
    endloop
  endfacet
  facet normal 0 0 1
    outer loop
      vertex 75 65 117.001
      vertex 54.3777 0 117.001
      vertex 75 -65 117.001
    endloop
  endfacet
  facet normal 0 0 1
    outer loop
      vertex 75 65 117.001
      vertex 53.1955 11.3098 117.001
      vertex 54.3777 0 117.001
    endloop
  endfacet
  facet normal 0 0 1
    outer loop
      vertex 75 65 117.001
      vertex 53.1894 11.368 117.001
      vertex 53.1955 11.3098 117.001
    endloop
  endfacet
  facet normal 0 0 1
    outer loop
      vertex 75 65 117.001
      vertex 53.1714 11.4237 117.001
      vertex 53.1894 11.368 117.001
    endloop
  endfacet
  facet normal 0 0 1
    outer loop
      vertex 75 65 117.001
      vertex 49.6765 22.2392 117.001
      vertex 53.1714 11.4237 117.001
    endloop
  endfacet
  facet normal 0 0 1
    outer loop
      vertex 75 65 117.001
      vertex 44.0216 32.0878 117.001
      vertex 49.6765 22.2392 117.001
    endloop
  endfacet
  facet normal 0 0 1
    outer loop
      vertex 75 65 117.001
      vertex 43.9925 32.1385 117.001
      vertex 44.0216 32.0878 117.001
    endloop
  endfacet
  facet normal 0 0 1
    outer loop
      vertex 75 65 117.001
      vertex 43.9535 32.1819 117.001
      vertex 43.9925 32.1385 117.001
    endloop
  endfacet
  facet normal 0 0 1
    outer loop
      vertex 75 65 117.001
      vertex 36.3858 40.6331 117.001
      vertex 43.9535 32.1819 117.001
    endloop
  endfacet
  facet normal 0 0 1
    outer loop
      vertex 75 65 117.001
      vertex 27.2359 47.3174 117.001
      vertex 36.3858 40.6331 117.001
    endloop
  endfacet
  facet normal 0 0 1
    outer loop
      vertex 75 65 117.001
      vertex 27.1888 47.3518 117.001
      vertex 27.2359 47.3174 117.001
    endloop
  endfacet
  facet normal 0 0 1
    outer loop
      vertex 75 65 117.001
      vertex 16.8568 51.9773 117.001
      vertex 27.1888 47.3518 117.001
    endloop
  endfacet
  facet normal 0 0 1
    outer loop
      vertex 75 65 117.001
      vertex 16.8036 52.0011 117.001
      vertex 16.8568 51.9773 117.001
    endloop
  endfacet
  facet normal 0 0 1
    outer loop
      vertex 75 65 117.001
      vertex 5.74095 54.3655 117.001
      vertex 16.8036 52.0011 117.001
    endloop
  endfacet
  facet normal 0 0 1
    outer loop
      vertex 75 65 117.001
      vertex 5.68401 54.3777 117.001
      vertex 5.74095 54.3655 117.001
    endloop
  endfacet
  facet normal 0 0 1
    outer loop
      vertex 75 65 117.001
      vertex 5.62581 54.3777 117.001
      vertex 5.68401 54.3777 117.001
    endloop
  endfacet
  facet normal 0 0 1
    outer loop
      vertex 75 65 117.001
      vertex -5.68401 54.3777 117.001
      vertex 5.62581 54.3777 117.001
    endloop
  endfacet
  facet normal 0 0 1
    outer loop
      vertex -75 65 117.001
      vertex -27.2359 47.3174 117.001
      vertex -27.1888 47.3518 117.001
    endloop
  endfacet
  facet normal 0 0 1
    outer loop
      vertex -75 65 117.001
      vertex -43.9535 32.1819 117.001
      vertex -36.3858 40.6331 117.001
    endloop
  endfacet
  facet normal 0 0 1
    outer loop
      vertex -75 65 117.001
      vertex -53.1714 11.4237 117.001
      vertex -49.6765 22.2392 117.001
    endloop
  endfacet
  facet normal 0 0 1
    outer loop
      vertex -53.1955 11.3098 117.001
      vertex -75 65 117.001
      vertex -54.3777 0 117.001
    endloop
  endfacet
  facet normal 0 0 1
    outer loop
      vertex -53.1894 11.368 117.001
      vertex -75 65 117.001
      vertex -53.1955 11.3098 117.001
    endloop
  endfacet
  facet normal 0 0 1
    outer loop
      vertex -53.1714 11.4237 117.001
      vertex -75 65 117.001
      vertex -53.1894 11.368 117.001
    endloop
  endfacet
  facet normal 0 0 1
    outer loop
      vertex -44.0216 32.0878 117.001
      vertex -75 65 117.001
      vertex -49.6765 22.2392 117.001
    endloop
  endfacet
  facet normal 0 0 1
    outer loop
      vertex -43.9925 32.1385 117.001
      vertex -75 65 117.001
      vertex -44.0216 32.0878 117.001
    endloop
  endfacet
  facet normal 0 0 1
    outer loop
      vertex -43.9535 32.1819 117.001
      vertex -75 65 117.001
      vertex -43.9925 32.1385 117.001
    endloop
  endfacet
  facet normal 0 0 1
    outer loop
      vertex -27.2359 47.3174 117.001
      vertex -75 65 117.001
      vertex -36.3858 40.6331 117.001
    endloop
  endfacet
  facet normal 0 0 1
    outer loop
      vertex -16.8568 51.9773 117.001
      vertex -75 65 117.001
      vertex -27.1888 47.3518 117.001
    endloop
  endfacet
  facet normal 0 0 1
    outer loop
      vertex -16.8036 52.0011 117.001
      vertex -75 65 117.001
      vertex -16.8568 51.9773 117.001
    endloop
  endfacet
  facet normal 0 0 1
    outer loop
      vertex -16.7467 52.0133 117.001
      vertex -75 65 117.001
      vertex -16.8036 52.0011 117.001
    endloop
  endfacet
  facet normal 0 0 1
    outer loop
      vertex -5.68401 54.3777 117.001
      vertex -75 65 117.001
      vertex -16.7467 52.0133 117.001
    endloop
  endfacet
  facet normal -0 0 1
    outer loop
      vertex -75 65 117.001
      vertex -5.68401 54.3777 117.001
      vertex 75 65 117.001
    endloop
  endfacet
  facet normal -0 0 1
    outer loop
      vertex 53.1955 -11.3098 117.001
      vertex 75 -65 117.001
      vertex 54.3777 0 117.001
    endloop
  endfacet
  facet normal -0 0 1
    outer loop
      vertex 53.1894 -11.368 117.001
      vertex 75 -65 117.001
      vertex 53.1955 -11.3098 117.001
    endloop
  endfacet
  facet normal -0 0 1
    outer loop
      vertex 53.1714 -11.4237 117.001
      vertex 75 -65 117.001
      vertex 53.1894 -11.368 117.001
    endloop
  endfacet
  facet normal -0 0 1
    outer loop
      vertex 49.6765 -22.2392 117.001
      vertex 75 -65 117.001
      vertex 53.1714 -11.4237 117.001
    endloop
  endfacet
  facet normal -0 0 1
    outer loop
      vertex 44.0216 -32.0878 117.001
      vertex 75 -65 117.001
      vertex 49.6765 -22.2392 117.001
    endloop
  endfacet
  facet normal -0 0 1
    outer loop
      vertex 43.9925 -32.1385 117.001
      vertex 75 -65 117.001
      vertex 44.0216 -32.0878 117.001
    endloop
  endfacet
  facet normal -0 0 1
    outer loop
      vertex 43.9535 -32.1819 117.001
      vertex 75 -65 117.001
      vertex 43.9925 -32.1385 117.001
    endloop
  endfacet
  facet normal -0 0 1
    outer loop
      vertex 36.3858 -40.6331 117.001
      vertex 75 -65 117.001
      vertex 43.9535 -32.1819 117.001
    endloop
  endfacet
  facet normal -0 0 1
    outer loop
      vertex 27.2359 -47.3174 117.001
      vertex 75 -65 117.001
      vertex 36.3858 -40.6331 117.001
    endloop
  endfacet
  facet normal -0 0 1
    outer loop
      vertex 27.1888 -47.3518 117.001
      vertex 75 -65 117.001
      vertex 27.2359 -47.3174 117.001
    endloop
  endfacet
  facet normal -0 0 1
    outer loop
      vertex 16.8568 -51.9773 117.001
      vertex 75 -65 117.001
      vertex 27.1888 -47.3518 117.001
    endloop
  endfacet
  facet normal -0 0 1
    outer loop
      vertex 16.8036 -52.0011 117.001
      vertex 75 -65 117.001
      vertex 16.8568 -51.9773 117.001
    endloop
  endfacet
  facet normal -0 0 1
    outer loop
      vertex 16.7467 -52.0133 117.001
      vertex 75 -65 117.001
      vertex 16.8036 -52.0011 117.001
    endloop
  endfacet
  facet normal -0 0 1
    outer loop
      vertex 5.68401 -54.3777 117.001
      vertex 75 -65 117.001
      vertex 16.7467 -52.0133 117.001
    endloop
  endfacet
  facet normal 0 0 1
    outer loop
      vertex -5.62581 -54.3777 117.001
      vertex 75 -65 117.001
      vertex 5.68401 -54.3777 117.001
    endloop
  endfacet
  facet normal 0 0 1
    outer loop
      vertex -75 -65 117.001
      vertex -5.62581 -54.3777 117.001
      vertex -5.68401 -54.3777 117.001
    endloop
  endfacet
  facet normal 0 0 1
    outer loop
      vertex -75 -65 117.001
      vertex -27.2359 -47.3174 117.001
      vertex -36.3858 -40.6331 117.001
    endloop
  endfacet
  facet normal 0 0 1
    outer loop
      vertex -75 -65 117.001
      vertex -43.9535 -32.1819 117.001
      vertex -43.9925 -32.1385 117.001
    endloop
  endfacet
  facet normal 0 0 1
    outer loop
      vertex -75 -65 117.001
      vertex -53.1714 -11.4237 117.001
      vertex -53.1894 -11.368 117.001
    endloop
  endfacet
  facet normal 0 0 1
    outer loop
      vertex -75 -65 117.001
      vertex -54.3777 0 117.001
      vertex -75 65 117.001
    endloop
  endfacet
  facet normal 0 0 1
    outer loop
      vertex -54.3777 0 117.001
      vertex -75 -65 117.001
      vertex -53.1955 -11.3098 117.001
    endloop
  endfacet
  facet normal 0 0 1
    outer loop
      vertex -5.62581 -54.3777 117.001
      vertex -75 -65 117.001
      vertex 75 -65 117.001
    endloop
  endfacet
  facet normal 0 0 1
    outer loop
      vertex -5.74095 -54.3655 117.001
      vertex -75 -65 117.001
      vertex -5.68401 -54.3777 117.001
    endloop
  endfacet
  facet normal 0 0 1
    outer loop
      vertex -16.8036 -52.0011 117.001
      vertex -75 -65 117.001
      vertex -5.74095 -54.3655 117.001
    endloop
  endfacet
  facet normal 0 0 1
    outer loop
      vertex -16.8568 -51.9773 117.001
      vertex -75 -65 117.001
      vertex -16.8036 -52.0011 117.001
    endloop
  endfacet
  facet normal 0 0 1
    outer loop
      vertex -27.1888 -47.3518 117.001
      vertex -75 -65 117.001
      vertex -16.8568 -51.9773 117.001
    endloop
  endfacet
  facet normal 0 0 1
    outer loop
      vertex -27.2359 -47.3174 117.001
      vertex -75 -65 117.001
      vertex -27.1888 -47.3518 117.001
    endloop
  endfacet
  facet normal 0 0 1
    outer loop
      vertex -43.9535 -32.1819 117.001
      vertex -75 -65 117.001
      vertex -36.3858 -40.6331 117.001
    endloop
  endfacet
  facet normal 0 0 1
    outer loop
      vertex -44.0216 -32.0878 117.001
      vertex -75 -65 117.001
      vertex -43.9925 -32.1385 117.001
    endloop
  endfacet
  facet normal 0 0 1
    outer loop
      vertex -49.6765 -22.2392 117.001
      vertex -75 -65 117.001
      vertex -44.0216 -32.0878 117.001
    endloop
  endfacet
  facet normal 0 0 1
    outer loop
      vertex -53.1714 -11.4237 117.001
      vertex -75 -65 117.001
      vertex -49.6765 -22.2392 117.001
    endloop
  endfacet
  facet normal 0 0 1
    outer loop
      vertex -53.1955 -11.3098 117.001
      vertex -75 -65 117.001
      vertex -53.1894 -11.368 117.001
    endloop
  endfacet
  facet normal -1 0 0
    outer loop
      vertex -75 -65 116.999
      vertex -75 65 117.001
      vertex -75 65 116.999
    endloop
  endfacet
  facet normal -1 -0 0
    outer loop
      vertex -75 65 117.001
      vertex -75 -65 116.999
      vertex -75 -65 117.001
    endloop
  endfacet
  facet normal 0 1 -0
    outer loop
      vertex 75 65 116.999
      vertex -75 65 117.001
      vertex 75 65 117.001
    endloop
  endfacet
  facet normal 0 1 0
    outer loop
      vertex -75 65 117.001
      vertex 75 65 116.999
      vertex -75 65 116.999
    endloop
  endfacet
  facet normal 1 -0 0
    outer loop
      vertex 75 -65 117.001
      vertex 75 65 116.999
      vertex 75 65 117.001
    endloop
  endfacet
  facet normal 1 0 0
    outer loop
      vertex 75 65 116.999
      vertex 75 -65 117.001
      vertex 75 -65 116.999
    endloop
  endfacet
  facet normal -0.966235 0 -0.257663
    outer loop
      vertex -55 -37.5 41.9995
      vertex -75 65 116.999
      vertex -55 37.5 41.9995
    endloop
  endfacet
  facet normal -0.966235 -0 -0.257663
    outer loop
      vertex -75 65 116.999
      vertex -55 -37.5 41.9995
      vertex -75 -65 116.999
    endloop
  endfacet
  facet normal 0.966235 0 -0.257663
    outer loop
      vertex 75 65 116.999
      vertex 55 -37.5 41.9995
      vertex 55 37.5 41.9995
    endloop
  endfacet
  facet normal 0.966235 0 -0.257663
    outer loop
      vertex 55 -37.5 41.9995
      vertex 75 65 116.999
      vertex 75 -65 116.999
    endloop
  endfacet
  facet normal 0 0.938876 -0.344255
    outer loop
      vertex 55 37.5 41.9995
      vertex -75 65 116.999
      vertex 75 65 116.999
    endloop
  endfacet
  facet normal 0 0.938876 -0.344255
    outer loop
      vertex -75 65 116.999
      vertex 55 37.5 41.9995
      vertex -55 37.5 41.9995
    endloop
  endfacet
  facet normal 0 0 -1
    outer loop
      vertex 55 -37.5 41.9995
      vertex 16 0 41.9995
      vertex 55 37.5 41.9995
    endloop
  endfacet
  facet normal 0 0 -1
    outer loop
      vertex 55 -37.5 41.9995
      vertex 15.6504 -3.34491 41.9995
      vertex 16 0 41.9995
    endloop
  endfacet
  facet normal 0 0 -1
    outer loop
      vertex 55 -37.5 41.9995
      vertex 14.6167 -6.54363 41.9995
      vertex 15.6504 -3.34491 41.9995
    endloop
  endfacet
  facet normal 0 0 -1
    outer loop
      vertex 55 -37.5 41.9995
      vertex 12.9443 -9.45637 41.9995
      vertex 14.6167 -6.54363 41.9995
    endloop
  endfacet
  facet normal 0 0 -1
    outer loop
      vertex 55 -37.5 41.9995
      vertex 10.7061 -11.9558 41.9995
      vertex 12.9443 -9.45637 41.9995
    endloop
  endfacet
  facet normal 0 0 -1
    outer loop
      vertex 55 -37.5 41.9995
      vertex 8 -13.9327 41.9995
      vertex 10.7061 -11.9558 41.9995
    endloop
  endfacet
  facet normal 0 0 -1
    outer loop
      vertex 55 -37.5 41.9995
      vertex 4.94427 -15.3007 41.9995
      vertex 8 -13.9327 41.9995
    endloop
  endfacet
  facet normal 0 0 -1
    outer loop
      vertex 55 -37.5 41.9995
      vertex 1.67245 -16 41.9995
      vertex 4.94427 -15.3007 41.9995
    endloop
  endfacet
  facet normal 0 0 -1
    outer loop
      vertex 55 -37.5 41.9995
      vertex -1.67245 -16 41.9995
      vertex 1.67245 -16 41.9995
    endloop
  endfacet
  facet normal 0 0 -1
    outer loop
      vertex -55 -37.5 41.9995
      vertex -1.67245 -16 41.9995
      vertex 55 -37.5 41.9995
    endloop
  endfacet
  facet normal -0 0 -1
    outer loop
      vertex -15.6504 -3.34491 41.9995
      vertex -55 -37.5 41.9995
      vertex -16 0 41.9995
    endloop
  endfacet
  facet normal -0 0 -1
    outer loop
      vertex -14.6167 -6.54363 41.9995
      vertex -55 -37.5 41.9995
      vertex -15.6504 -3.34491 41.9995
    endloop
  endfacet
  facet normal -0 0 -1
    outer loop
      vertex -12.9443 -9.45637 41.9995
      vertex -55 -37.5 41.9995
      vertex -14.6167 -6.54363 41.9995
    endloop
  endfacet
  facet normal -0 0 -1
    outer loop
      vertex -10.7061 -11.9558 41.9995
      vertex -55 -37.5 41.9995
      vertex -12.9443 -9.45637 41.9995
    endloop
  endfacet
  facet normal -0 0 -1
    outer loop
      vertex -8 -13.9327 41.9995
      vertex -55 -37.5 41.9995
      vertex -10.7061 -11.9558 41.9995
    endloop
  endfacet
  facet normal -0 0 -1
    outer loop
      vertex -4.94427 -15.3007 41.9995
      vertex -55 -37.5 41.9995
      vertex -8 -13.9327 41.9995
    endloop
  endfacet
  facet normal -0 0 -1
    outer loop
      vertex -1.67245 -16 41.9995
      vertex -55 -37.5 41.9995
      vertex -4.94427 -15.3007 41.9995
    endloop
  endfacet
  facet normal 0 0 -1
    outer loop
      vertex 15.6504 3.34491 41.9995
      vertex 55 37.5 41.9995
      vertex 16 0 41.9995
    endloop
  endfacet
  facet normal 0 0 -1
    outer loop
      vertex 14.6167 6.54363 41.9995
      vertex 55 37.5 41.9995
      vertex 15.6504 3.34491 41.9995
    endloop
  endfacet
  facet normal 0 0 -1
    outer loop
      vertex 12.9443 9.45637 41.9995
      vertex 55 37.5 41.9995
      vertex 14.6167 6.54363 41.9995
    endloop
  endfacet
  facet normal 0 0 -1
    outer loop
      vertex 10.7061 11.9558 41.9995
      vertex 55 37.5 41.9995
      vertex 12.9443 9.45637 41.9995
    endloop
  endfacet
  facet normal 0 0 -1
    outer loop
      vertex 8 13.9327 41.9995
      vertex 55 37.5 41.9995
      vertex 10.7061 11.9558 41.9995
    endloop
  endfacet
  facet normal 0 0 -1
    outer loop
      vertex 4.94427 15.3007 41.9995
      vertex 55 37.5 41.9995
      vertex 8 13.9327 41.9995
    endloop
  endfacet
  facet normal 0 0 -1
    outer loop
      vertex 1.67245 16 41.9995
      vertex 55 37.5 41.9995
      vertex 4.94427 15.3007 41.9995
    endloop
  endfacet
  facet normal 0 0 -1
    outer loop
      vertex -1.67245 16 41.9995
      vertex 55 37.5 41.9995
      vertex 1.67245 16 41.9995
    endloop
  endfacet
  facet normal 0 0 -1
    outer loop
      vertex -55 37.5 41.9995
      vertex -1.67245 16 41.9995
      vertex -4.94427 15.3007 41.9995
    endloop
  endfacet
  facet normal 0 0 -1
    outer loop
      vertex -55 37.5 41.9995
      vertex -16 0 41.9995
      vertex -55 -37.5 41.9995
    endloop
  endfacet
  facet normal 0 0 -1
    outer loop
      vertex -16 0 41.9995
      vertex -55 37.5 41.9995
      vertex -15.6504 3.34491 41.9995
    endloop
  endfacet
  facet normal 0 0 -1
    outer loop
      vertex -15.6504 3.34491 41.9995
      vertex -55 37.5 41.9995
      vertex -14.6167 6.54363 41.9995
    endloop
  endfacet
  facet normal 0 0 -1
    outer loop
      vertex -14.6167 6.54363 41.9995
      vertex -55 37.5 41.9995
      vertex -12.9443 9.45637 41.9995
    endloop
  endfacet
  facet normal 0 0 -1
    outer loop
      vertex -1.67245 16 41.9995
      vertex -55 37.5 41.9995
      vertex 55 37.5 41.9995
    endloop
  endfacet
  facet normal 0 0 -1
    outer loop
      vertex -8 13.9327 41.9995
      vertex -55 37.5 41.9995
      vertex -4.94427 15.3007 41.9995
    endloop
  endfacet
  facet normal 0 0 -1
    outer loop
      vertex -10.7061 11.9558 41.9995
      vertex -55 37.5 41.9995
      vertex -8 13.9327 41.9995
    endloop
  endfacet
  facet normal 0 0 -1
    outer loop
      vertex -12.9443 9.45637 41.9995
      vertex -55 37.5 41.9995
      vertex -10.7061 11.9558 41.9995
    endloop
  endfacet
  facet normal 0 -0.938876 -0.344255
    outer loop
      vertex -55 -37.5 41.9995
      vertex 75 -65 116.999
      vertex -75 -65 116.999
    endloop
  endfacet
  facet normal 0 -0.938876 -0.344255
    outer loop
      vertex 75 -65 116.999
      vertex -55 -37.5 41.9995
      vertex 55 -37.5 41.9995
    endloop
  endfacet
endsolid OpenSCAD_Model
